<svg version="1.1" xmlns="http://www.w3.org/2000/svg" xmlns:xlink="http://www.w3.org/1999/xlink" width="83" height="83" viewBox="0,0,83,83"><defs><linearGradient x1="198.5" y1="180.0008" x2="281.5" y2="180.0008" gradientUnits="userSpaceOnUse" id="color-1"><stop offset="0" stop-color="#c74040"/><stop offset="1" stop-color="#566900"/></linearGradient><radialGradient cx="240" cy="180.0008" r="33.9434" gradientUnits="userSpaceOnUse" id="color-2"><stop offset="0" stop-color="#de2340"/><stop offset="1" stop-color="#839400"/></radialGradient></defs><g transform="translate(-198.5,-138.5)"><g data-paper-data="{&quot;isPaintingLayer&quot;:true}" fill-rule="nonzero" stroke="none" stroke-width="1" stroke-linecap="butt" stroke-linejoin="miter" stroke-miterlimit="10" stroke-dasharray="" stroke-dashoffset="0" style="mix-blend-mode: normal"><path d="M281.5,180c0,22.882 -18.616,41.5 -41.5,41.5c-22.883,0 -41.5,-18.618 -41.5,-41.5c0,-22.883 18.616,-41.5 41.5,-41.5c22.884,0 41.5,18.618 41.5,41.5z" fill="url(#color-1)"/><path d="M206.056,180.001c0,-18.74675 15.19725,-33.944 33.944,-33.944c18.74675,0 33.944,15.19725 33.944,33.944c0,18.74675 -15.19725,33.944 -33.944,33.944c-18.74675,0 -33.944,-15.19725 -33.944,-33.944z" fill="url(#color-2)"/><text transform="translate(207.72501,175.868) scale(0.5,0.5)" font-size="40" xml:space="preserve" fill-opacity="0.49032" fill="#ffffff" fill-rule="nonzero" stroke="none" stroke-width="1" stroke-linecap="butt" stroke-linejoin="miter" stroke-miterlimit="10" stroke-dasharray="" stroke-dashoffset="0" font-family="Sans Serif" font-weight="normal" text-anchor="start" style="mix-blend-mode: normal"><tspan x="0" dy="0">Invaild</tspan><tspan x="0" dy="48px">   file</tspan></text></g></g></svg>